<svg width="8192" height="1024" viewBox="0 0 8192 1024" fill="none" xmlns="http://www.w3.org/2000/svg">
<g clip-path="url(#clip0_2605_3623)">
<rect width="8192" height="1024" fill="white"/>
<rect x="-1165" y="-19" width="10459" height="875" fill="url(#paint0_linear_2605_3623)"/>
<path d="M2427.94 139.497C2384.67 121.094 2336.51 125.224 2296.12 150.802L1743.06 501.092L2359.76 815.123L3226.78 501.09L2806.56 300.501L2427.94 139.497Z" fill="url(#paint1_linear_2605_3623)"/>
<ellipse cx="1281.55" cy="569.5" rx="424.5" ry="192.5" fill="url(#paint2_linear_2605_3623)"/>
<ellipse cx="3678.71" cy="199.099" rx="47.6615" ry="45.0991" fill="white"/>
<path d="M3306.54 136.469C3331.36 111.644 3369.97 107.066 3399.91 125.396L3932.35 451.339L3348.86 808.534L2991.67 451.34L3306.54 136.469Z" fill="#B2D5F9"/>
<path d="M3244.22 167.444C3255.64 155.96 3273.32 153.526 3287.42 161.499L3868.73 490.27L3285.25 847.465L2910.55 503L3244.22 167.444Z" fill="#B2D5F9"/>
<path fill-rule="evenodd" clip-rule="evenodd" d="M3466.21 89.314C3436.27 70.9833 3397.66 75.5614 3372.84 100.387L3057.97 415.257L3415.16 772.452L3469.45 739.216L3586.25 856.01L4169.73 498.816L3637.3 172.873C3621.49 163.195 3603.27 159.903 3585.93 162.604L3466.21 89.314Z" fill="url(#paint3_linear_2605_3623)"/>
<mask id="mask0_2605_3623" style="mask-type:alpha" maskUnits="userSpaceOnUse" x="2776" y="78" width="1394" height="779">
<path fill-rule="evenodd" clip-rule="evenodd" d="M3466.21 89.314C3436.27 70.9833 3397.66 75.5613 3372.84 100.387L3358.99 114.23C3339.8 114.554 3320.87 122.138 3306.54 136.469L3294.41 148.601C3276.87 147.322 3259.03 152.141 3244.2 162.927L2776.55 503L3285.25 847.465L3348.86 808.525L3348.87 808.534L3412.37 769.659L3415.16 772.452L3469.45 739.216L3586.25 856.011L4169.73 498.816L3637.3 172.873C3621.49 163.195 3603.27 159.903 3585.93 162.604L3466.21 89.314Z" fill="url(#paint4_linear_2605_3623)"/>
</mask>
<g mask="url(#mask0_2605_3623)">
<path d="M3418.55 90.8436C3400.7 69.1373 3377.05 95.6377 3362.05 113.137L3162.55 310.638L3005.86 465.749C3003.5 468.09 3004.86 472.127 3008.16 472.558L3178.94 494.855C3179.67 494.95 3180.41 494.842 3181.08 494.544L3367.8 411.692C3368.61 411.333 3369.27 410.731 3369.76 409.989C3380.43 393.696 3486.6 253.189 3439.55 206.343C3372.09 139.172 3444.05 121.844 3418.55 90.8436Z" fill="url(#paint5_linear_2605_3623)"/>
<path d="M3588.05 226.137C3588.05 198.138 3558.55 171.637 3537.05 190.137L3371.59 376.949C3370.64 378.026 3370.34 379.533 3370.8 380.895L3389.2 434.715C3389.72 436.219 3391.07 437.276 3392.66 437.407L3671.44 460.475C3673.03 460.606 3674.52 459.763 3674.88 458.213C3678.64 441.824 3676.16 367.093 3618.05 333.637C3545.55 291.895 3588.05 276.137 3588.05 226.137Z" fill="url(#paint6_linear_2605_3623)"/>
</g>
<path d="M5721.7 100.297C5672.8 79.2401 5617.96 87.1429 5575.17 121.409L5199.05 422.642L5776.75 836.852L6753.55 576.729L6168.55 292.729L5721.7 100.297Z" fill="url(#paint7_linear_2605_3623)"/>
<path d="M7951.7 120.611C7902.81 99.5541 7847.96 107.457 7805.17 141.723L7429.05 442.956L8006.75 857.166L8983.55 597.043L8398.55 313.043L7951.7 120.611Z" fill="url(#paint8_linear_2605_3623)"/>
<path fill-rule="evenodd" clip-rule="evenodd" d="M7459.24 203.177C7429.3 184.847 7390.7 189.425 7365.87 214.25L7051 529.121L7408.19 886.315L7462.49 853.079L7579.28 969.874L8162.76 612.679L7630.33 286.736C7614.52 277.058 7596.3 273.766 7578.96 276.467L7459.24 203.177Z" fill="url(#paint9_linear_2605_3623)"/>
<mask id="mask1_2605_3623" style="mask-type:alpha" maskUnits="userSpaceOnUse" x="7051" y="192" width="1112" height="778">
<path fill-rule="evenodd" clip-rule="evenodd" d="M7459.24 203.177C7429.3 184.847 7390.7 189.425 7365.87 214.25L7051 529.121L7408.19 886.315L7462.49 853.079L7579.28 969.874L8162.76 612.679L7630.33 286.736C7614.52 277.059 7596.3 273.766 7578.96 276.467L7459.24 203.177Z" fill="url(#paint10_linear_2605_3623)"/>
</mask>
<g mask="url(#mask1_2605_3623)">
<path d="M7411.59 204.707C7393.73 183.001 7370.09 209.501 7355.09 227L7155.59 424.501L6998.9 579.612C6996.53 581.954 6997.89 585.991 7001.19 586.422L7171.97 608.718C7172.7 608.813 7173.44 608.706 7174.11 608.408L7360.84 525.556C7361.65 525.196 7362.31 524.594 7362.79 523.852C7373.46 507.559 7479.63 367.053 7432.59 320.207C7365.13 253.035 7437.09 235.708 7411.59 204.707Z" fill="url(#paint11_linear_2605_3623)"/>
<path d="M7581.09 340C7581.09 312.001 7551.59 285.501 7530.09 304.001L7364.63 490.812C7363.68 491.889 7363.37 493.396 7363.84 494.758L7382.24 548.578C7382.75 550.082 7384.11 551.139 7385.69 551.27L7664.48 574.339C7666.06 574.47 7667.56 573.626 7667.91 572.076C7671.67 555.688 7669.19 480.956 7611.09 447.501C7538.59 405.758 7581.09 390 7581.09 340Z" fill="url(#paint12_linear_2605_3623)"/>
</g>
<path fill-rule="evenodd" clip-rule="evenodd" d="M180.524 107.696C223.147 74.2795 277.383 66.7789 325.757 87.6106L613.44 211.499C654.937 194.299 701.993 197.265 742.694 222.438L1066.2 422.522L1229.01 501.562L1948.05 596.051L971.252 856.174L779.461 718.66L381.75 824.571L-335.447 512.219L180.524 107.696Z" fill="url(#paint13_linear_2605_3623)"/>
<path fill-rule="evenodd" clip-rule="evenodd" d="M4892.78 85.3733C4938.55 46.7181 4998.99 39.1577 5051 65.5801L5623.55 356.425L6023.05 559.497L5165.53 879.531L4927.47 669.786L4775.22 843.67L4375.06 479.017L4739.71 162.868C4761.2 144.234 4789.18 141.306 4812.58 153.099L4892.78 85.3733Z" fill="url(#paint14_linear_2605_3623)"/>
<mask id="mask2_2605_3623" style="mask-type:alpha" maskUnits="userSpaceOnUse" x="4375" y="49" width="1658" height="831">
<path fill-rule="evenodd" clip-rule="evenodd" d="M4892.78 85.3733C4938.55 46.7181 4998.99 39.1577 5051 65.5801L5623.55 356.426L6032.55 565.499L5165.53 879.531L4927.47 669.785L4775.22 843.671L4375.05 479.018L4739.71 162.869C4761.2 144.235 4789.18 141.307 4812.58 153.1L4892.78 85.3733Z" fill="url(#paint15_linear_2605_3623)"/>
</mask>
<g mask="url(#mask2_2605_3623)">
<path opacity="0.6" d="M4811.03 153.689C4992.81 -14.6082 5004.54 43.9986 5028.54 125.498C5052.54 206.997 5059.04 227.998 5180.04 281.998C5292.86 332.346 5201.42 588.825 5188.53 623.287C5187.64 625.663 5185.41 627.118 5182.87 627.118H4441.13C4438.88 627.118 4436.81 625.916 4435.74 623.933C4424.25 602.713 4381.03 515.525 4469.44 458.82C4541.85 412.376 4765.31 196.018 4811.03 153.689Z" fill="url(#paint16_linear_2605_3623)"/>
</g>
<circle cx="3296.09" cy="283.034" r="5.62718" transform="rotate(4.31362 3296.09 283.034)" fill="#81BFA5"/>
<circle cx="3370.2" cy="295.034" r="5.62718" transform="rotate(4.31362 3370.2 295.034)" fill="#81BFA5"/>
<circle cx="3270.09" cy="279.034" r="5.62718" transform="rotate(4.31362 3270.09 279.034)" fill="#81BFA5"/>
<path fill-rule="evenodd" clip-rule="evenodd" d="M3320.16 287.445C3325.11 287.819 3329.43 284.107 3329.81 279.155C3330.18 274.203 3326.47 269.885 3321.51 269.512C3317.75 269.227 3314.35 271.307 3312.77 274.498C3310.25 274.361 3308.02 275.909 3307.19 278.176C3306.26 277.189 3304.97 276.533 3303.51 276.423C3300.42 276.19 3297.71 278.512 3297.48 281.611C3297.25 284.71 3299.57 287.412 3302.67 287.646C3305.24 287.84 3307.53 286.279 3308.37 283.976C3309.3 284.962 3310.59 285.618 3312.05 285.728C3313.05 285.804 3314.02 285.61 3314.87 285.207C3316.29 286.468 3318.12 287.291 3320.16 287.445Z" fill="url(#paint17_linear_2605_3623)"/>
<circle cx="3282.7" cy="281.643" r="8.99238" transform="rotate(4.31362 3282.7 281.643)" fill="#81BFA5"/>
<circle cx="3329.96" cy="282.745" r="6.30769" transform="rotate(4.31362 3329.96 282.745)" fill="#81BFA5"/>
<path fill-rule="evenodd" clip-rule="evenodd" d="M3320.27 291.989C3319.34 292.347 3318.32 292.509 3317.26 292.429C3313.42 292.139 3310.54 288.792 3310.83 284.952C3311.12 281.113 3314.46 278.235 3318.3 278.524C3321.07 278.733 3323.34 280.535 3324.28 282.964C3325.22 282.607 3326.24 282.444 3327.3 282.524C3331.14 282.814 3334.02 286.161 3333.73 290.001C3333.44 293.841 3330.09 296.719 3326.26 296.429C3323.48 296.22 3321.21 294.419 3320.27 291.989Z" fill="url(#paint18_linear_2605_3623)"/>
<circle cx="3363.07" cy="287.747" r="6.30769" transform="rotate(4.31362 3363.07 287.747)" fill="#81BFA5"/>
<path fill-rule="evenodd" clip-rule="evenodd" d="M3362.91 284.155C3362.54 289.107 3358.22 292.819 3353.27 292.446C3351.23 292.292 3349.4 291.468 3347.98 290.207C3347.13 290.61 3346.16 290.804 3345.16 290.728C3344.13 290.651 3343.19 290.303 3342.4 289.759C3342.05 292.087 3339.96 293.785 3337.57 293.605C3335.08 293.417 3333.21 291.24 3333.39 288.744C3333.58 286.247 3335.76 284.376 3338.26 284.565C3338.87 284.611 3339.44 284.775 3339.95 285.034C3339.95 284.921 3339.96 284.808 3339.97 284.694C3340.2 281.635 3342.83 279.333 3345.88 279.498C3347.46 276.307 3350.86 274.228 3354.62 274.512C3359.58 274.885 3363.29 279.203 3362.91 284.155Z" fill="url(#paint19_linear_2605_3623)"/>
<path fill-rule="evenodd" clip-rule="evenodd" d="M3352.42 296.385C3351.56 296.714 3350.61 296.864 3349.64 296.79C3346.1 296.523 3343.45 293.442 3343.72 289.909C3343.99 286.375 3347.07 283.726 3350.6 283.992C3353.15 284.185 3355.24 285.843 3356.11 288.079C3356.96 287.75 3357.91 287.6 3358.89 287.674C3362.42 287.941 3365.07 291.021 3364.8 294.555C3364.53 298.089 3361.45 300.738 3357.92 300.471C3355.37 300.279 3353.28 298.621 3352.42 296.385Z" fill="url(#paint20_linear_2605_3623)"/>
<path d="M3260.88 279.814C3336.38 279.814 3601.38 332.814 3782.88 426.314L3260.88 598.33C3260.88 598.33 2372.38 677.812 2626.88 462.313C2881.38 246.814 3260.88 279.814 3260.88 279.814Z" fill="#BBE6CE"/>
<path opacity="0.6" d="M3171.55 306.999C3247.05 306.999 3378.05 306.999 3481.05 432.499C3481.05 432.499 3352.05 584.999 3336.05 447.499C3330.13 396.59 3260.05 299 2882.05 325.5C2907.05 318 2922.55 313.5 2922.55 313.5C3031.66 305.156 3171.55 306.999 3171.55 306.999Z" fill="url(#paint21_linear_2605_3623)"/>
<path opacity="0.6" d="M3227.05 287C3302.55 287 3440.55 295 3722.55 425C3722.55 425 3631.55 581 3575.05 447.5C3518.55 314 3227.05 287 3227.05 287Z" fill="url(#paint22_linear_2605_3623)"/>
<path d="M2674.01 212.224C2653.21 199.837 2628.06 201.983 2609.11 217.763L2487.9 318.665L2152.55 593.501L2927.55 481.5L3069.05 447.5L2674.01 212.224Z" fill="url(#paint23_linear_2605_3623)"/>
<mask id="mask3_2605_3623" style="mask-type:alpha" maskUnits="userSpaceOnUse" x="2229" y="199" width="830" height="315">
<path d="M2675.03 205.085C2654.72 194.767 2631.12 197.719 2613.24 212.815L2487.9 318.665L2229.55 513.501L3058.34 400.311L2898.62 318.665L2675.03 205.085Z" fill="url(#paint24_linear_2605_3623)"/>
</mask>
<g mask="url(#mask3_2605_3623)">
<path opacity="0.6" d="M2581.32 239.495C2652.31 173.772 2660.68 222.173 2670.06 254C2679.43 285.827 2674.29 294.739 2725.42 332.12C2773.18 367.031 2731.73 436.491 2726.05 445.516C2725.65 446.146 2724.99 446.521 2724.25 446.575L2457.79 465.839C2456.53 465.93 2455.58 466.921 2455.39 468.169C2446.63 526.41 2094.98 630.59 2447.92 358.654C2474.53 338.149 2563.46 256.025 2581.32 239.495Z" fill="url(#paint25_linear_2605_3623)"/>
</g>
<path d="M6923.98 315.834C7003.93 315.834 7284.56 368.833 7476.77 462.333L7801 595.5C7801 595.5 5983.07 713.831 6252.59 498.333C6522.1 282.834 6923.98 315.834 6923.98 315.834Z" fill="#BBE6CE"/>
<mask id="mask4_2605_3623" style="mask-type:alpha" maskUnits="userSpaceOnUse" x="6204" y="314" width="1273" height="335">
<path d="M6923.98 315.834C7003.93 315.834 7284.56 368.833 7476.77 462.333L7415.53 634.349H6923.98C6923.98 634.349 5983.07 713.831 6252.59 498.333C6522.1 282.834 6923.98 315.834 6923.98 315.834Z" fill="#BBE6CE"/>
</mask>
<g mask="url(#mask4_2605_3623)">
<path opacity="0.6" d="M6690.65 341.304C6770.61 341.304 6909.33 341.304 7018.41 466.804C7018.41 466.804 6881.8 619.304 6864.86 481.804C6858.58 430.895 6784.37 333.305 6384.08 359.805C6410.55 352.305 6426.97 347.805 6426.97 347.805C6542.51 339.461 6690.65 341.304 6690.65 341.304Z" fill="url(#paint26_linear_2605_3623)"/>
<path opacity="0.6" d="M6749.43 321.305C6829.38 321.305 7033.24 330.305 7331.87 460.305C7331.87 460.305 7177.79 615.305 7117.96 481.805C7058.12 348.305 6749.43 321.305 6749.43 321.305Z" fill="url(#paint27_linear_2605_3623)"/>
</g>
<circle cx="458.088" cy="321.054" r="5.62718" transform="rotate(4.31362 458.088 321.054)" fill="#81BFA5"/>
<circle cx="532.198" cy="333.054" r="5.62718" transform="rotate(4.31362 532.198 333.054)" fill="#81BFA5"/>
<circle cx="432.088" cy="317.054" r="5.62718" transform="rotate(4.31362 432.088 317.054)" fill="#81BFA5"/>
<path fill-rule="evenodd" clip-rule="evenodd" d="M482.16 325.465C487.112 325.838 491.43 322.127 491.803 317.174C492.177 312.222 488.465 307.905 483.513 307.531C479.746 307.247 476.347 309.326 474.77 312.517C472.252 312.381 470.016 313.928 469.185 316.195C468.256 315.209 466.97 314.553 465.512 314.443C462.413 314.209 459.712 316.532 459.478 319.631C459.244 322.73 461.567 325.432 464.666 325.665C467.233 325.859 469.528 324.298 470.373 321.995C471.301 322.982 472.587 323.638 474.045 323.748C475.052 323.823 476.017 323.629 476.87 323.226C478.29 324.488 480.12 325.311 482.16 325.465Z" fill="url(#paint28_linear_2605_3623)"/>
<circle cx="444.693" cy="319.663" r="8.99238" transform="rotate(4.31362 444.693 319.663)" fill="#81BFA5"/>
<circle cx="491.956" cy="320.764" r="6.30769" transform="rotate(4.31362 491.956 320.764)" fill="#81BFA5"/>
<path fill-rule="evenodd" clip-rule="evenodd" d="M482.272 330.009C481.34 330.366 480.315 330.529 479.253 330.449C475.413 330.159 472.536 326.812 472.825 322.972C473.115 319.132 476.462 316.254 480.302 316.544C483.073 316.753 485.343 318.554 486.283 320.984C487.215 320.626 488.24 320.464 489.302 320.544C493.142 320.834 496.019 324.181 495.73 328.021C495.44 331.86 492.093 334.738 488.253 334.449C485.482 334.24 483.212 332.438 482.272 330.009Z" fill="url(#paint29_linear_2605_3623)"/>
<circle cx="525.067" cy="325.766" r="6.30769" transform="rotate(4.31362 525.067 325.766)" fill="#81BFA5"/>
<path fill-rule="evenodd" clip-rule="evenodd" d="M524.913 322.175C524.539 327.127 520.222 330.839 515.269 330.465C513.229 330.311 511.399 329.488 509.979 328.227C509.127 328.63 508.161 328.824 507.154 328.748C506.128 328.67 505.187 328.322 504.395 327.779C504.048 330.106 501.956 331.804 499.572 331.624C497.075 331.436 495.204 329.26 495.393 326.763C495.581 324.267 497.757 322.396 500.254 322.584C500.864 322.63 501.436 322.795 501.951 323.054C501.952 322.941 501.958 322.827 501.966 322.713C502.197 319.655 504.832 317.352 507.88 317.517C509.456 314.326 512.855 312.247 516.622 312.531C521.574 312.905 525.286 317.222 524.913 322.175Z" fill="url(#paint30_linear_2605_3623)"/>
<path fill-rule="evenodd" clip-rule="evenodd" d="M514.413 334.404C513.555 334.734 512.612 334.883 511.635 334.809C508.101 334.543 505.452 331.462 505.719 327.928C505.985 324.394 509.066 321.745 512.6 322.012C515.15 322.204 517.239 323.862 518.105 326.098C518.963 325.769 519.906 325.62 520.883 325.693C524.417 325.96 527.066 329.041 526.799 332.575C526.533 336.109 523.452 338.758 519.918 338.491C517.368 338.299 515.279 336.641 514.413 334.404Z" fill="url(#paint31_linear_2605_3623)"/>
<circle cx="346.098" cy="317.276" r="5.62718" transform="rotate(-2.77673 346.098 317.276)" fill="#81BFA5"/>
<circle cx="421.122" cy="320.035" r="5.62718" transform="rotate(-2.77673 421.122 320.035)" fill="#81BFA5"/>
<circle cx="319.803" cy="316.514" r="5.62718" transform="rotate(-2.77673 319.803 316.514)" fill="#81BFA5"/>
<path fill-rule="evenodd" clip-rule="evenodd" d="M370.53 318.681C375.49 318.44 379.316 314.224 379.076 309.263C378.835 304.303 374.619 300.476 369.658 300.717C365.885 300.9 362.769 303.383 361.598 306.744C359.083 306.919 357.055 308.731 356.509 311.083C355.466 310.219 354.109 309.727 352.649 309.798C349.545 309.948 347.15 312.587 347.301 315.691C347.452 318.795 350.09 321.19 353.194 321.039C355.766 320.914 357.85 319.082 358.404 316.693C359.448 317.557 360.805 318.049 362.265 317.978C363.274 317.929 364.207 317.617 365.003 317.112C366.569 318.189 368.486 318.78 370.53 318.681Z" fill="url(#paint32_linear_2605_3623)"/>
<circle cx="332.634" cy="317.548" r="8.99238" transform="rotate(-2.77673 332.634 317.548)" fill="#81BFA5"/>
<circle cx="379.672" cy="312.807" r="6.30769" transform="rotate(-2.77673 379.672 312.807)" fill="#81BFA5"/>
<path fill-rule="evenodd" clip-rule="evenodd" d="M371.202 323.177C370.321 323.647 369.324 323.935 368.26 323.986C364.414 324.173 361.145 321.206 360.959 317.36C360.772 313.514 363.739 310.245 367.585 310.059C370.36 309.924 372.835 311.432 374.068 313.727C374.949 313.256 375.946 312.969 377.01 312.917C380.856 312.731 384.125 315.697 384.312 319.543C384.498 323.389 381.531 326.658 377.685 326.845C374.91 326.98 372.435 325.472 371.202 323.177Z" fill="url(#paint33_linear_2605_3623)"/>
<circle cx="413.147" cy="313.682" r="6.30769" transform="rotate(-2.77673 413.147 313.682)" fill="#81BFA5"/>
<path fill-rule="evenodd" clip-rule="evenodd" d="M412.549 310.139C412.79 315.099 408.964 319.316 404.003 319.556C401.959 319.656 400.042 319.064 398.477 317.988C397.681 318.493 396.747 318.805 395.738 318.854C394.71 318.904 393.733 318.674 392.881 318.233C392.823 320.585 390.957 322.529 388.569 322.644C386.068 322.766 383.943 320.837 383.822 318.336C383.7 315.836 385.629 313.71 388.13 313.589C388.741 313.56 389.329 313.652 389.872 313.846C389.859 313.734 389.851 313.62 389.845 313.506C389.696 310.442 392.027 307.832 395.072 307.62C396.242 304.259 399.359 301.776 403.132 301.593C408.092 301.352 412.309 305.178 412.549 310.139Z" fill="url(#paint34_linear_2605_3623)"/>
<path fill-rule="evenodd" clip-rule="evenodd" d="M403.641 323.572C402.83 324.005 401.913 324.269 400.933 324.317C397.394 324.488 394.385 321.758 394.213 318.218C394.042 314.678 396.772 311.669 400.312 311.498C402.866 311.374 405.144 312.761 406.279 314.874C407.09 314.441 408.007 314.176 408.986 314.129C412.526 313.957 415.535 316.687 415.707 320.227C415.878 323.767 413.148 326.776 409.608 326.947C407.054 327.071 404.776 325.684 403.641 323.572Z" fill="url(#paint35_linear_2605_3623)"/>
<path d="M422.88 317.833C498.381 317.833 763.381 370.833 944.881 464.333L422.88 636.348C422.88 636.348 -693.447 737.999 -438.947 522.5C-184.447 307.001 422.88 317.833 422.88 317.833Z" fill="#BBE6CE"/>
<mask id="mask5_2605_3623" style="mask-type:alpha" maskUnits="userSpaceOnUse" x="-517" y="317" width="1462" height="348">
<path d="M422.88 317.833C498.381 317.833 763.381 370.833 944.881 464.333L422.88 636.349C422.88 636.349 -734.947 746.499 -480.447 531C-225.947 315.501 422.88 317.833 422.88 317.833Z" fill="#BBE6CE"/>
</mask>
<g mask="url(#mask5_2605_3623)">
<path opacity="0.6" d="M149.555 348.005C225.055 348.005 356.055 348.005 459.055 473.505C459.055 473.505 330.055 626.005 314.055 488.505C308.131 437.596 238.055 340.006 -139.945 366.506C-114.945 359.006 -99.4453 354.506 -99.4453 354.506C9.66333 346.162 149.555 348.005 149.555 348.005Z" fill="url(#paint36_linear_2605_3623)"/>
<path opacity="0.6" d="M205.055 328.006C280.555 328.006 486.555 325.006 768.555 455.006C768.555 455.006 609.555 622.006 553.055 488.506C496.555 355.006 205.055 328.006 205.055 328.006Z" fill="url(#paint37_linear_2605_3623)"/>
</g>
<path d="M6155.89 243.017C6135.65 232.735 6112.14 235.628 6094.28 250.596L5928.56 389.5L6200.75 560.946L6624.41 473.241L6379.61 356.665L6155.89 243.017Z" fill="url(#paint38_linear_2605_3623)"/>
<mask id="mask6_2605_3623" style="mask-type:alpha" maskUnits="userSpaceOnUse" x="5928" y="236" width="612" height="325">
<path d="M6155.95 243.044C6135.68 232.748 6112.13 235.664 6094.27 250.684L5928.55 389.999L6200.75 560.946L6539.34 438.311L6379.62 356.665L6155.95 243.044Z" fill="url(#paint39_linear_2605_3623)"/>
</mask>
<g mask="url(#mask6_2605_3623)">
<path opacity="0.6" d="M6062.31 277.496C6133.3 211.774 6137.89 234.661 6147.26 266.487C6156.63 298.314 6136.17 329.767 6206.42 370.121C6272.27 407.95 6214.66 475.361 6207.19 483.649C6206.71 484.187 6206 484.459 6205.28 484.404L5919.03 462.575C5917.63 462.469 5916.44 463.686 5916.42 465.088C5915.66 516.864 5892.83 419.799 5928.92 396.655C5957.2 378.518 6044.46 294.027 6062.31 277.496Z" fill="url(#paint40_linear_2605_3623)"/>
</g>
<path d="M1052.02 234.085C1070.93 224.479 1092.79 226.335 1110.25 239.026L1387.05 440.244L1577.9 653.745L581.051 465.555L825.842 348.979L1052.02 234.085Z" fill="url(#paint41_linear_2605_3623)"/>
<mask id="mask7_2605_3623" style="mask-type:alpha" maskUnits="userSpaceOnUse" x="666" y="229" width="824" height="423">
<path d="M1049.41 235.405C1069.73 225.083 1093.34 228.042 1111.22 243.15L1333.05 430.624L1489.9 651.244L666.115 430.625L825.837 348.978L1049.41 235.405Z" fill="url(#paint42_linear_2605_3623)"/>
</mask>
<g mask="url(#mask7_2605_3623)">
<path opacity="0.6" d="M977.923 244.436C1066.21 204.888 1063.23 228.038 1061.92 261.19C1060.62 294.343 1031.17 317.595 1084.81 378.307C1135.09 435.221 1058.93 480.65 1049.21 486.112C1048.58 486.466 1047.82 486.498 1047.15 486.215L782.941 373.925C781.651 373.377 780.133 374.149 779.665 375.47C762.378 424.281 771.814 325.016 813.409 314.637C846.004 306.504 955.717 254.383 977.923 244.436Z" fill="url(#paint43_linear_2605_3623)"/>
</g>
<path d="M9003 449.5C8468 411.07 3888.05 406 3274.55 406L-506.5 445L-781 531.5L-386.947 1211L2272.05 1096L8668.55 1267L9356.5 1174.5L9124.5 685.5L9003 449.5Z" fill="url(#paint44_linear_2605_3623)"/>
<path d="M4417.55 682C4226.94 682 4298.73 580.5 4376.23 556.5C4453.73 532.5 4444.23 508.645 4410.73 511.5C4380.27 514.096 4364.54 511.275 4288.05 508.645C4083.25 501.604 4115.48 437.472 4218.98 409H4250.48C4158.48 443.837 4207.06 467.531 4293.79 464.94C4421.45 461.126 4466.06 462.302 4512.55 467.109C4591.05 467.109 4573.19 511.171 4538.05 532.5C4513.05 547.672 4524.55 568.504 4557.55 569.5C4636.04 571.868 4889.55 556.5 5210.55 567.358C5704.05 587.5 6220.55 603 6413.55 621L9032.5 811L9017 1006L6413.55 770.5C5616.55 713 4590.23 682 4417.55 682Z" fill="url(#paint45_linear_2605_3623)"/>
<mask id="mask8_2605_3623" style="mask-type:alpha" maskUnits="userSpaceOnUse" x="4770" y="42" width="171" height="49">
<rect x="4770" y="42" width="170.333" height="49" fill="#C4C4C4"/>
</mask>
<g mask="url(#mask8_2605_3623)">
<path fill-rule="evenodd" clip-rule="evenodd" d="M4872.17 95.475C4876.81 95.475 4881.11 94.0284 4884.65 91.5615C4887.57 101.097 4896.44 108.032 4906.93 108.032C4919.79 108.032 4930.22 97.6026 4930.22 84.7378C4930.22 71.873 4919.79 61.444 4906.93 61.444C4901.59 61.444 4896.68 63.2388 4892.75 66.2576C4889.72 57.8142 4881.65 51.7734 4872.17 51.7734C4863.51 51.7734 4856.03 56.8069 4852.5 64.1066C4850.19 63.1174 4847.64 62.5697 4844.97 62.5697C4835.52 62.5697 4827.67 69.4323 4826.13 78.4474C4820.91 75.2242 4814.76 73.3644 4808.17 73.3644C4789.26 73.3644 4773.93 88.6947 4773.93 107.606C4773.93 126.517 4789.26 141.847 4808.17 141.847C4827.08 141.847 4842.41 126.517 4842.41 107.606C4842.41 105.175 4842.16 102.803 4841.68 100.515C4842.75 100.701 4843.85 100.798 4844.97 100.798C4851.59 100.798 4857.43 97.4337 4860.86 92.3217C4864.16 94.3229 4868.03 95.475 4872.17 95.475Z" fill="url(#paint46_linear_2605_3623)"/>
<path fill-rule="evenodd" clip-rule="evenodd" d="M4871.58 101.888C4877.89 101.888 4883.53 99.1072 4887.31 94.727C4890.16 101.653 4897.19 106.554 4905.41 106.554C4916.15 106.554 4924.86 98.1971 4924.86 87.8878C4924.86 77.5785 4916.15 69.2211 4905.41 69.2211C4899.76 69.2211 4894.67 71.5342 4891.12 75.2276C4888.38 67.2156 4880.67 61.4434 4871.58 61.4434C4863.83 61.4434 4857.08 65.639 4853.56 71.8411C4851.67 71.1539 4849.62 70.7767 4847.47 70.7767C4838.32 70.7767 4830.89 77.6095 4830.75 86.0879C4826.2 84.7614 4820.88 83.9989 4815.19 83.9989C4798.44 83.9989 4784.86 90.6152 4784.86 98.7767C4784.86 106.938 4798.44 113.554 4815.19 113.554C4829.88 113.554 4842.13 108.466 4844.92 101.709C4845.75 101.827 4846.6 101.888 4847.47 101.888C4851.91 101.888 4855.95 100.275 4858.94 97.6449C4862.43 100.304 4866.82 101.888 4871.58 101.888Z" fill="url(#paint47_linear_2605_3623)"/>
</g>
<mask id="mask9_2605_3623" style="mask-type:alpha" maskUnits="userSpaceOnUse" x="7491" y="33" width="220" height="63">
<rect x="7491.95" y="33" width="219" height="63" fill="#C4C4C4"/>
</mask>
<g mask="url(#mask9_2605_3623)">
<path fill-rule="evenodd" clip-rule="evenodd" d="M7623.31 101.752C7629.27 101.752 7634.8 99.8921 7639.35 96.7201C7643.1 108.98 7654.51 117.897 7668 117.897C7684.54 117.897 7697.95 104.488 7697.95 87.948C7697.95 71.4075 7684.54 57.9988 7668 57.9988C7661.14 57.9988 7654.81 60.3065 7649.76 64.1881C7645.88 53.3317 7635.5 45.5645 7623.31 45.5645C7612.18 45.5645 7602.56 52.0365 7598.01 61.4223C7595.04 60.1504 7591.77 59.4462 7588.34 59.4462C7576.18 59.4462 7566.09 68.2692 7564.11 79.8598C7557.4 75.7156 7549.49 73.3243 7541.02 73.3243C7516.71 73.3243 7497 93.0347 7497 117.349C7497 141.663 7516.71 161.373 7541.02 161.373C7565.33 161.373 7585.05 141.663 7585.05 117.349C7585.05 114.223 7584.72 111.174 7584.1 108.233C7585.48 108.472 7586.89 108.597 7588.34 108.597C7596.85 108.597 7604.35 104.271 7608.76 97.698C7613 100.271 7617.98 101.752 7623.31 101.752Z" fill="url(#paint48_linear_2605_3623)"/>
<path fill-rule="evenodd" clip-rule="evenodd" d="M7622.55 110C7630.66 110 7637.92 106.425 7642.78 100.793C7646.43 109.698 7655.47 116 7666.05 116C7679.85 116 7691.05 105.255 7691.05 92C7691.05 78.7452 7679.85 68 7666.05 68C7658.78 68 7652.24 70.9738 7647.68 75.7224C7644.15 65.4213 7634.23 58 7622.55 58C7612.58 58 7603.91 63.3943 7599.38 71.3685C7596.95 70.485 7594.31 70 7591.55 70C7579.79 70 7570.23 78.7851 7570.05 89.686C7564.2 87.9803 7557.36 87 7550.05 87C7528.51 87 7511.05 95.5066 7511.05 106C7511.05 116.493 7528.51 125 7550.05 125C7568.94 125 7584.69 118.458 7588.28 109.77C7589.34 109.922 7590.44 110 7591.55 110C7597.26 110 7602.45 107.927 7606.3 104.545C7610.79 107.964 7616.43 110 7622.55 110Z" fill="url(#paint49_linear_2605_3623)"/>
</g>
<mask id="mask10_2605_3623" style="mask-type:alpha" maskUnits="userSpaceOnUse" x="3808" y="243" width="122" height="46">
<rect x="3808" y="243" width="122" height="46" fill="#C4C4C4"/>
</mask>
<g mask="url(#mask10_2605_3623)">
<path fill-rule="evenodd" clip-rule="evenodd" d="M3925.65 283.087C3925.65 299.704 3911.42 313.174 3893.87 313.174C3880.21 313.174 3868.55 305.002 3864.07 293.536C3862.61 293.869 3861.08 294.045 3859.51 294.045C3855.89 294.045 3852.49 293.103 3849.59 291.463C3848.5 299.342 3841.38 305.424 3832.76 305.424C3823.39 305.424 3815.79 298.227 3815.79 289.35C3815.79 280.472 3823.39 273.276 3832.76 273.276C3835.4 273.276 3837.9 273.847 3840.13 274.865C3840.57 265.09 3849.08 257.294 3859.51 257.294C3864.18 257.294 3868.45 258.851 3871.8 261.446C3877.52 256.217 3885.3 253 3893.87 253C3911.42 253 3925.65 266.47 3925.65 283.087Z" fill="url(#paint50_linear_2605_3623)"/>
<path fill-rule="evenodd" clip-rule="evenodd" d="M3912.84 285C3912.84 296.598 3903.67 306 3892.34 306C3885.13 306 3878.79 302.183 3875.13 296.414C3872.03 300.602 3867.13 303.307 3861.61 303.307C3856.92 303.307 3852.68 301.357 3849.61 298.205C3848.58 305.792 3842.41 311.623 3834.96 311.623C3826.79 311.623 3820.17 304.611 3820.17 295.961C3820.17 287.311 3826.79 280.298 3834.96 280.298C3838.7 280.298 3842.12 281.767 3844.72 284.189C3845.56 275.383 3852.8 268.501 3861.61 268.501C3866.78 268.501 3871.41 270.874 3874.52 274.615C3878.05 268.275 3884.71 264 3892.34 264C3903.67 264 3912.84 273.402 3912.84 285Z" fill="url(#paint51_linear_2605_3623)"/>
</g>
<mask id="mask11_2605_3623" style="mask-type:alpha" maskUnits="userSpaceOnUse" x="4512" y="30" width="50" height="19">
<rect x="4512" y="30" width="49.5974" height="19" fill="#C4C4C4"/>
</mask>
<g mask="url(#mask11_2605_3623)">
<path fill-rule="evenodd" clip-rule="evenodd" d="M4549.12 51.1005C4547.77 52.972 4545.58 54.1911 4543.1 54.1911C4540.98 54.1911 4539.07 53.303 4537.72 51.8791C4536.96 53.5321 4535.29 54.6795 4533.35 54.6795C4530.69 54.6795 4528.54 52.5243 4528.54 49.8658C4528.54 47.2072 4530.69 45.052 4533.35 45.052C4534.23 45.052 4535.06 45.2896 4535.77 45.7043C4536.29 42.1253 4539.37 39.377 4543.1 39.377C4545.59 39.377 4547.8 40.6112 4549.14 42.5026C4550.19 41.5368 4551.59 40.9468 4553.12 40.9468C4556.36 40.9468 4558.99 43.5733 4558.99 46.8131C4558.99 50.053 4556.36 52.6795 4553.12 52.6795C4551.58 52.6795 4550.17 52.08 4549.12 51.1005Z" fill="url(#paint52_linear_2605_3623)"/>
<path fill-rule="evenodd" clip-rule="evenodd" d="M4557.65 51.5917C4557.65 55.2031 4554.93 58.1307 4551.58 58.1307C4549.69 58.1307 4548 57.2025 4546.89 55.7467C4545.8 57.2025 4544.15 58.1307 4542.31 58.1307C4540.45 58.1307 4538.79 57.1804 4537.7 55.6948C4536.89 56.2013 4535.92 56.496 4534.87 56.496C4532.02 56.496 4529.71 54.3003 4529.71 51.5918C4529.71 48.8832 4532.02 46.6875 4534.87 46.6875C4535.92 46.6875 4536.89 46.9822 4537.7 47.4887C4538.79 46.003 4540.45 45.0527 4542.31 45.0527C4544.15 45.0527 4545.8 45.9809 4546.89 47.4367C4548 45.9809 4549.69 45.0527 4551.58 45.0527C4554.93 45.0527 4557.65 47.9803 4557.65 51.5917Z" fill="url(#paint53_linear_2605_3623)"/>
</g>
<mask id="mask12_2605_3623" style="mask-type:alpha" maskUnits="userSpaceOnUse" x="6850" y="220" width="50" height="19">
<rect x="6850" y="220" width="49.5974" height="19" fill="#C4C4C4"/>
</mask>
<g mask="url(#mask12_2605_3623)">
<path fill-rule="evenodd" clip-rule="evenodd" d="M6887.12 241.1C6885.77 242.972 6883.58 244.191 6881.1 244.191C6878.98 244.191 6877.07 243.303 6875.72 241.879C6874.96 243.532 6873.29 244.68 6871.35 244.68C6868.69 244.68 6866.54 242.524 6866.54 239.866C6866.54 237.207 6868.69 235.052 6871.35 235.052C6872.23 235.052 6873.06 235.29 6873.77 235.704C6874.29 232.125 6877.37 229.377 6881.1 229.377C6883.59 229.377 6885.8 230.611 6887.14 232.503C6888.19 231.537 6889.59 230.947 6891.12 230.947C6894.36 230.947 6896.99 233.573 6896.99 236.813C6896.99 240.053 6894.36 242.679 6891.12 242.679C6889.58 242.679 6888.17 242.08 6887.12 241.1Z" fill="url(#paint54_linear_2605_3623)"/>
<path fill-rule="evenodd" clip-rule="evenodd" d="M6895.65 241.592C6895.65 245.203 6892.93 248.131 6889.58 248.131C6887.69 248.131 6886 247.202 6884.89 245.747C6883.8 247.202 6882.15 248.131 6880.31 248.131C6878.45 248.131 6876.79 247.18 6875.7 245.695C6874.89 246.201 6873.92 246.496 6872.87 246.496C6870.02 246.496 6867.71 244.3 6867.71 241.592C6867.71 238.883 6870.02 236.688 6872.87 236.688C6873.92 236.688 6874.89 236.982 6875.7 237.489C6876.79 236.003 6878.45 235.053 6880.31 235.053C6882.15 235.053 6883.8 235.981 6884.89 237.437C6886 235.981 6887.69 235.053 6889.58 235.053C6892.93 235.053 6895.65 237.98 6895.65 241.592Z" fill="url(#paint55_linear_2605_3623)"/>
</g>
<mask id="mask13_2605_3623" style="mask-type:alpha" maskUnits="userSpaceOnUse" x="867" y="100" width="50" height="19">
<rect x="867" y="100" width="49.5974" height="19" fill="#C4C4C4"/>
</mask>
<g mask="url(#mask13_2605_3623)">
<path fill-rule="evenodd" clip-rule="evenodd" d="M904.119 121.1C902.775 122.972 900.579 124.191 898.099 124.191C895.982 124.191 894.073 123.303 892.723 121.879C891.96 123.532 890.289 124.68 888.349 124.68C885.69 124.68 883.535 122.524 883.535 119.866C883.535 117.207 885.69 115.052 888.349 115.052C889.232 115.052 890.059 115.29 890.77 115.704C891.293 112.125 894.375 109.377 898.099 109.377C900.595 109.377 902.802 110.611 904.144 112.503C905.19 111.537 906.588 110.947 908.123 110.947C911.363 110.947 913.989 113.573 913.989 116.813C913.989 120.053 911.363 122.679 908.123 122.679C906.575 122.679 905.167 122.08 904.119 121.1Z" fill="url(#paint56_linear_2605_3623)"/>
<path fill-rule="evenodd" clip-rule="evenodd" d="M912.65 121.592C912.65 125.203 909.93 128.131 906.575 128.131C904.686 128.131 902.999 127.202 901.884 125.747C900.798 127.202 899.152 128.131 897.311 128.131C895.447 128.131 893.784 127.18 892.698 125.695C891.886 126.201 890.913 126.496 889.869 126.496C887.017 126.496 884.705 124.3 884.705 121.592C884.705 118.883 887.017 116.688 889.869 116.688C890.913 116.688 891.886 116.982 892.698 117.489C893.784 116.003 895.447 115.053 897.311 115.053C899.152 115.053 900.798 115.981 901.884 117.437C902.999 115.981 904.686 115.053 906.575 115.053C909.93 115.053 912.65 117.98 912.65 121.592Z" fill="url(#paint57_linear_2605_3623)"/>
</g>
<mask id="mask14_2605_3623" style="mask-type:alpha" maskUnits="userSpaceOnUse" x="106" y="112" width="50" height="19">
<rect x="106" y="112" width="49.5974" height="19" fill="#C4C4C4"/>
</mask>
<g mask="url(#mask14_2605_3623)">
<path fill-rule="evenodd" clip-rule="evenodd" d="M143.119 133.1C141.775 134.972 139.579 136.191 137.099 136.191C134.982 136.191 133.073 135.303 131.723 133.879C130.96 135.532 129.289 136.68 127.349 136.68C124.69 136.68 122.535 134.524 122.535 131.866C122.535 129.207 124.69 127.052 127.349 127.052C128.232 127.052 129.059 127.29 129.77 127.704C130.293 124.125 133.375 121.377 137.099 121.377C139.595 121.377 141.802 122.611 143.144 124.503C144.19 123.537 145.588 122.947 147.123 122.947C150.363 122.947 152.989 125.573 152.989 128.813C152.989 132.053 150.363 134.679 147.123 134.679C145.575 134.679 144.167 134.08 143.119 133.1Z" fill="url(#paint58_linear_2605_3623)"/>
<path fill-rule="evenodd" clip-rule="evenodd" d="M151.65 133.592C151.65 137.203 148.93 140.131 145.575 140.131C143.686 140.131 141.999 139.202 140.884 137.747C139.798 139.202 138.152 140.131 136.311 140.131C134.447 140.131 132.784 139.18 131.698 137.695C130.886 138.201 129.913 138.496 128.869 138.496C126.017 138.496 123.705 136.3 123.705 133.592C123.705 130.883 126.017 128.688 128.869 128.688C129.913 128.688 130.886 128.982 131.698 129.489C132.784 128.003 134.447 127.053 136.311 127.053C138.152 127.053 139.798 127.981 140.884 129.437C141.999 127.981 143.686 127.053 145.575 127.053C148.93 127.053 151.65 129.98 151.65 133.592Z" fill="url(#paint59_linear_2605_3623)"/>
</g>
<mask id="mask15_2605_3623" style="mask-type:alpha" maskUnits="userSpaceOnUse" x="5419" y="89" width="50" height="19">
<rect x="5419" y="89" width="49.5974" height="19" fill="#C4C4C4"/>
</mask>
<g mask="url(#mask15_2605_3623)">
<path fill-rule="evenodd" clip-rule="evenodd" d="M5456.12 110.1C5454.77 111.972 5452.58 113.191 5450.1 113.191C5447.98 113.191 5446.07 112.303 5444.72 110.879C5443.96 112.532 5442.29 113.68 5440.35 113.68C5437.69 113.68 5435.54 111.524 5435.54 108.866C5435.54 106.207 5437.69 104.052 5440.35 104.052C5441.23 104.052 5442.06 104.29 5442.77 104.704C5443.29 101.125 5446.37 98.377 5450.1 98.377C5452.59 98.377 5454.8 99.6112 5456.14 101.503C5457.19 100.537 5458.59 99.9468 5460.12 99.9468C5463.36 99.9468 5465.99 102.573 5465.99 105.813C5465.99 109.053 5463.36 111.679 5460.12 111.679C5458.58 111.679 5457.17 111.08 5456.12 110.1Z" fill="url(#paint60_linear_2605_3623)"/>
<path fill-rule="evenodd" clip-rule="evenodd" d="M5464.65 110.592C5464.65 114.203 5461.93 117.131 5458.58 117.131C5456.69 117.131 5455 116.202 5453.89 114.747C5452.8 116.202 5451.15 117.131 5449.31 117.131C5447.45 117.131 5445.79 116.18 5444.7 114.695C5443.89 115.201 5442.92 115.496 5441.87 115.496C5439.02 115.496 5436.71 113.3 5436.71 110.592C5436.71 107.883 5439.02 105.688 5441.87 105.688C5442.92 105.688 5443.89 105.982 5444.7 106.489C5445.79 105.003 5447.45 104.053 5449.31 104.053C5451.15 104.053 5452.8 104.981 5453.89 106.437C5455 104.981 5456.69 104.053 5458.58 104.053C5461.93 104.053 5464.65 106.98 5464.65 110.592Z" fill="url(#paint61_linear_2605_3623)"/>
</g>
<mask id="mask16_2605_3623" style="mask-type:alpha" maskUnits="userSpaceOnUse" x="2368" y="20" width="50" height="19">
<rect x="2368" y="20" width="49.5974" height="19" fill="#C4C4C4"/>
</mask>
<g mask="url(#mask16_2605_3623)">
<path fill-rule="evenodd" clip-rule="evenodd" d="M2405.12 41.1005C2403.77 42.972 2401.58 44.1911 2399.1 44.1911C2396.98 44.1911 2395.07 43.303 2393.72 41.8791C2392.96 43.5321 2391.29 44.6795 2389.35 44.6795C2386.69 44.6795 2384.54 42.5243 2384.54 39.8658C2384.54 37.2072 2386.69 35.052 2389.35 35.052C2390.23 35.052 2391.06 35.2896 2391.77 35.7043C2392.29 32.1253 2395.37 29.377 2399.1 29.377C2401.59 29.377 2403.8 30.6112 2405.14 32.5026C2406.19 31.5368 2407.59 30.9468 2409.12 30.9468C2412.36 30.9468 2414.99 33.5733 2414.99 36.8131C2414.99 40.053 2412.36 42.6795 2409.12 42.6795C2407.58 42.6795 2406.17 42.08 2405.12 41.1005Z" fill="url(#paint62_linear_2605_3623)"/>
<path fill-rule="evenodd" clip-rule="evenodd" d="M2413.65 41.5917C2413.65 45.2031 2410.93 48.1307 2407.58 48.1307C2405.69 48.1307 2404 47.2025 2402.89 45.7467C2401.8 47.2025 2400.15 48.1307 2398.31 48.1307C2396.45 48.1307 2394.79 47.1804 2393.7 45.6948C2392.89 46.2013 2391.92 46.496 2390.87 46.496C2388.02 46.496 2385.71 44.3003 2385.71 41.5918C2385.71 38.8832 2388.02 36.6875 2390.87 36.6875C2391.92 36.6875 2392.89 36.9822 2393.7 37.4887C2394.79 36.003 2396.45 35.0527 2398.31 35.0527C2400.15 35.0527 2401.8 35.9809 2402.89 37.4367C2404 35.9809 2405.69 35.0527 2407.58 35.0527C2410.93 35.0527 2413.65 37.9803 2413.65 41.5917Z" fill="url(#paint63_linear_2605_3623)"/>
</g>
<mask id="mask17_2605_3623" style="mask-type:alpha" maskUnits="userSpaceOnUse" x="1728" y="244" width="50" height="19">
<rect x="1728" y="244" width="49.5974" height="19" fill="#C4C4C4"/>
</mask>
<g mask="url(#mask17_2605_3623)">
<path fill-rule="evenodd" clip-rule="evenodd" d="M1765.12 265.1C1763.77 266.972 1761.58 268.191 1759.1 268.191C1756.98 268.191 1755.07 267.303 1753.72 265.879C1752.96 267.532 1751.29 268.68 1749.35 268.68C1746.69 268.68 1744.54 266.524 1744.54 263.866C1744.54 261.207 1746.69 259.052 1749.35 259.052C1750.23 259.052 1751.06 259.29 1751.77 259.704C1752.29 256.125 1755.37 253.377 1759.1 253.377C1761.59 253.377 1763.8 254.611 1765.14 256.503C1766.19 255.537 1767.59 254.947 1769.12 254.947C1772.36 254.947 1774.99 257.573 1774.99 260.813C1774.99 264.053 1772.36 266.679 1769.12 266.679C1767.58 266.679 1766.17 266.08 1765.12 265.1Z" fill="url(#paint64_linear_2605_3623)"/>
<path fill-rule="evenodd" clip-rule="evenodd" d="M1773.65 265.592C1773.65 269.203 1770.93 272.131 1767.58 272.131C1765.69 272.131 1764 271.202 1762.89 269.747C1761.8 271.202 1760.15 272.131 1758.31 272.131C1756.45 272.131 1754.79 271.18 1753.7 269.695C1752.89 270.201 1751.92 270.496 1750.87 270.496C1748.02 270.496 1745.71 268.3 1745.71 265.592C1745.71 262.883 1748.02 260.688 1750.87 260.688C1751.92 260.688 1752.89 260.982 1753.7 261.489C1754.79 260.003 1756.45 259.053 1758.31 259.053C1760.15 259.053 1761.8 259.981 1762.89 261.437C1764 259.981 1765.69 259.053 1767.58 259.053C1770.93 259.053 1773.65 261.98 1773.65 265.592Z" fill="url(#paint65_linear_2605_3623)"/>
</g>
<mask id="mask18_2605_3623" style="mask-type:alpha" maskUnits="userSpaceOnUse" x="3782" y="12" width="123" height="36">
<rect x="3782" y="12" width="122.478" height="36" fill="#C4C4C4"/>
</mask>
<g mask="url(#mask18_2605_3623)">
<path fill-rule="evenodd" clip-rule="evenodd" d="M3873.74 53.1908C3870.41 57.817 3864.99 60.8303 3858.86 60.8303C3853.62 60.8303 3848.91 58.6353 3845.57 55.116C3843.69 59.2012 3839.55 62.0366 3834.76 62.0366C3828.19 62.0366 3822.86 56.7103 3822.86 50.14C3822.86 43.5696 3828.19 38.2433 3834.76 38.2433C3836.94 38.2433 3838.99 38.8305 3840.74 39.8556C3842.04 31.0106 3849.65 24.2188 3858.86 24.2188C3865.03 24.2188 3870.48 27.2701 3873.8 31.9458C3876.38 29.5582 3879.84 28.0993 3883.63 28.0993C3891.64 28.0993 3898.13 34.5903 3898.13 42.5974C3898.13 50.6044 3891.64 57.0954 3883.63 57.0954C3879.81 57.0954 3876.33 55.6128 3873.74 53.1908Z" fill="url(#paint66_linear_2605_3623)"/>
<path fill-rule="evenodd" clip-rule="evenodd" d="M3894.7 50.3488C3894.7 59.4255 3888.04 66.7836 3879.83 66.7836C3875.9 66.7836 3872.33 65.1002 3869.67 62.3505C3867.16 67.2543 3862.39 70.564 3856.92 70.564C3852.32 70.564 3848.21 68.2149 3845.52 64.5426C3843.51 65.7953 3841.11 66.524 3838.53 66.524C3831.48 66.524 3825.77 61.0976 3825.77 54.4038C3825.77 47.7099 3831.48 42.2835 3838.53 42.2835C3841.11 42.2835 3843.51 43.0121 3845.52 44.2648C3848.21 40.5924 3852.32 38.2433 3856.92 38.2433C3860.72 38.2433 3864.18 39.8403 3866.78 42.4593C3869.31 37.3667 3874.2 33.9141 3879.83 33.9141C3888.04 33.9141 3894.7 41.2722 3894.7 50.3488Z" fill="url(#paint67_linear_2605_3623)"/>
</g>
<mask id="mask19_2605_3623" style="mask-type:alpha" maskUnits="userSpaceOnUse" x="2655" y="39" width="313" height="92">
<rect x="2655" y="39" width="313" height="92" fill="#C4C4C4"/>
</mask>
<g mask="url(#mask19_2605_3623)">
<path fill-rule="evenodd" clip-rule="evenodd" d="M2889.43 144.262C2880.94 156.085 2867.07 163.785 2851.41 163.785C2838.04 163.785 2825.98 158.177 2817.45 149.185C2812.64 159.624 2802.08 166.869 2789.83 166.869C2773.04 166.869 2759.43 153.257 2759.43 136.466C2759.43 119.675 2773.04 106.064 2789.83 106.064C2795.41 106.064 2800.63 107.563 2805.12 110.182C2808.42 87.5787 2827.89 70.2227 2851.41 70.2227C2867.17 70.2227 2881.12 78.021 2889.59 89.9706C2896.2 83.8687 2905.03 80.1404 2914.73 80.1404C2935.19 80.1404 2951.78 96.7285 2951.78 117.191C2951.78 137.653 2935.19 154.241 2914.73 154.241C2904.95 154.241 2896.05 150.452 2889.43 144.262Z" fill="url(#paint68_linear_2605_3623)"/>
<path fill-rule="evenodd" clip-rule="evenodd" d="M2943 137C2943 160.196 2925.99 179 2905 179C2894.96 179 2885.83 174.698 2879.04 167.67C2872.62 180.203 2860.43 188.662 2846.46 188.662C2834.68 188.662 2824.18 182.659 2817.33 173.274C2812.19 176.475 2806.05 178.337 2799.45 178.337C2781.44 178.337 2766.84 164.47 2766.84 147.363C2766.84 130.257 2781.44 116.389 2799.45 116.389C2806.05 116.389 2812.19 118.251 2817.32 121.453C2824.18 112.068 2834.68 106.064 2846.46 106.064C2856.16 106.064 2865.01 110.146 2871.66 116.839C2878.11 103.824 2890.62 95 2905 95C2925.99 95 2943 113.804 2943 137Z" fill="url(#paint69_linear_2605_3623)"/>
</g>
<mask id="mask20_2605_3623" style="mask-type:alpha" maskUnits="userSpaceOnUse" x="1248" y="89" width="313" height="92">
<rect x="1248" y="89" width="313" height="92" fill="#C4C4C4"/>
</mask>
<g mask="url(#mask20_2605_3623)">
<path fill-rule="evenodd" clip-rule="evenodd" d="M1482.43 194.262C1473.94 206.085 1460.07 213.785 1444.41 213.785C1431.04 213.785 1418.98 208.177 1410.45 199.185C1405.64 209.624 1395.08 216.869 1382.83 216.869C1366.04 216.869 1352.43 203.257 1352.43 186.466C1352.43 169.675 1366.04 156.064 1382.83 156.064C1388.41 156.064 1393.63 157.563 1398.12 160.182C1401.42 137.579 1420.89 120.223 1444.41 120.223C1460.17 120.223 1474.12 128.021 1482.59 139.971C1489.2 133.869 1498.03 130.14 1507.73 130.14C1528.19 130.14 1544.78 146.728 1544.78 167.191C1544.78 187.653 1528.19 204.241 1507.73 204.241C1497.95 204.241 1489.05 200.452 1482.43 194.262Z" fill="url(#paint70_linear_2605_3623)"/>
<path fill-rule="evenodd" clip-rule="evenodd" d="M1536 187C1536 210.196 1518.98 229 1498 229C1487.96 229 1478.83 224.698 1472.04 217.67C1465.61 230.203 1453.43 238.662 1439.46 238.662C1427.68 238.662 1417.18 232.659 1410.32 223.274C1405.19 226.475 1399.05 228.337 1392.45 228.337C1374.44 228.337 1359.83 214.47 1359.83 197.363C1359.83 180.257 1374.44 166.389 1392.45 166.389C1399.05 166.389 1405.19 168.251 1410.32 171.453C1417.18 162.068 1427.68 156.064 1439.46 156.064C1449.16 156.064 1458.01 160.146 1464.65 166.839C1471.11 153.824 1483.62 145 1498 145C1518.98 145 1536 163.804 1536 187Z" fill="url(#paint71_linear_2605_3623)"/>
</g>
<mask id="mask21_2605_3623" style="mask-type:alpha" maskUnits="userSpaceOnUse" x="654" y="223" width="174" height="51">
<rect x="654" y="223" width="173.511" height="51" fill="#C4C4C4"/>
</mask>
<g mask="url(#mask21_2605_3623)">
<path fill-rule="evenodd" clip-rule="evenodd" d="M783.956 281.352C779.25 287.906 771.562 292.175 762.878 292.175C755.466 292.175 748.781 289.066 744.055 284.081C741.386 289.868 735.533 293.885 728.742 293.885C719.434 293.885 711.889 286.339 711.889 277.031C711.889 267.723 719.434 260.177 728.742 260.177C731.832 260.177 734.728 261.009 737.218 262.461C739.049 249.93 749.84 240.309 762.878 240.309C771.617 240.309 779.347 244.632 784.045 251.256C787.707 247.873 792.602 245.807 797.979 245.807C809.322 245.807 818.518 255.002 818.518 266.345C818.518 277.689 809.322 286.884 797.979 286.884C792.558 286.884 787.627 284.784 783.956 281.352Z" fill="url(#paint72_linear_2605_3623)"/>
<path fill-rule="evenodd" clip-rule="evenodd" d="M813.65 277.328C813.65 290.186 804.219 300.61 792.585 300.61C787.02 300.61 781.959 298.225 778.193 294.329C774.633 301.277 767.878 305.966 760.131 305.966C753.605 305.966 747.783 302.638 743.982 297.436C741.136 299.21 737.732 300.242 734.073 300.242C724.088 300.242 715.994 292.555 715.994 283.072C715.994 273.589 724.088 265.902 734.073 265.902C737.732 265.902 741.137 266.934 743.982 268.708C747.784 263.506 753.605 260.178 760.131 260.178C765.512 260.178 770.415 262.441 774.101 266.152C777.679 258.937 784.615 254.045 792.585 254.045C804.219 254.045 813.65 264.469 813.65 277.328Z" fill="url(#paint73_linear_2605_3623)"/>
</g>
<mask id="mask22_2605_3623" style="mask-type:alpha" maskUnits="userSpaceOnUse" x="6047" y="88" width="314" height="92">
<rect x="6047.05" y="88" width="313" height="92" fill="#C4C4C4"/>
</mask>
<g mask="url(#mask22_2605_3623)">
<path fill-rule="evenodd" clip-rule="evenodd" d="M6281.49 193.262C6273 205.085 6259.13 212.785 6243.46 212.785C6230.09 212.785 6218.03 207.177 6209.51 198.185C6204.69 208.624 6194.14 215.869 6181.89 215.869C6165.1 215.869 6151.48 202.257 6151.48 185.466C6151.48 168.675 6165.1 155.064 6181.89 155.064C6187.46 155.064 6192.68 156.563 6197.18 159.182C6200.48 136.579 6219.94 119.223 6243.46 119.223C6259.23 119.223 6273.17 127.021 6281.65 138.971C6288.25 132.869 6297.08 129.14 6306.78 129.14C6327.25 129.14 6343.83 145.728 6343.83 166.191C6343.83 186.653 6327.25 203.241 6306.78 203.241C6297 203.241 6288.11 199.452 6281.49 193.262Z" fill="url(#paint74_linear_2605_3623)"/>
<path fill-rule="evenodd" clip-rule="evenodd" d="M6335.05 186C6335.05 209.196 6318.04 228 6297.05 228C6287.02 228 6277.89 223.698 6271.09 216.67C6264.67 229.203 6252.49 237.662 6238.51 237.662C6226.74 237.662 6216.24 231.659 6209.38 222.274C6204.25 225.475 6198.1 227.337 6191.5 227.337C6173.49 227.337 6158.89 213.47 6158.89 196.363C6158.89 179.257 6173.49 165.389 6191.5 165.389C6198.1 165.389 6204.25 167.251 6209.38 170.453C6216.24 161.068 6226.74 155.064 6238.51 155.064C6248.22 155.064 6257.06 159.146 6263.71 165.839C6270.17 152.824 6282.68 144 6297.05 144C6318.04 144 6335.05 162.804 6335.05 186Z" fill="url(#paint75_linear_2605_3623)"/>
</g>
<mask id="mask23_2605_3623" style="mask-type:alpha" maskUnits="userSpaceOnUse" x="6945" y="169" width="79" height="23">
<rect x="6945.05" y="169" width="78.25" height="23" fill="#C4C4C4"/>
</mask>
<g mask="url(#mask23_2605_3623)">
<path fill-rule="evenodd" clip-rule="evenodd" d="M7003.67 195.317C7001.54 198.272 6998.08 200.197 6994.16 200.197C6990.82 200.197 6987.8 198.795 6985.67 196.547C6984.47 199.157 6981.83 200.968 6978.76 200.968C6974.57 200.968 6971.16 197.566 6971.16 193.368C6971.16 189.17 6974.57 185.767 6978.76 185.767C6980.16 185.767 6981.46 186.142 6982.59 186.797C6983.41 181.146 6988.28 176.807 6994.16 176.807C6998.1 176.807 7001.59 178.756 7003.71 181.744C7005.36 180.218 7007.56 179.287 7009.99 179.287C7015.1 179.287 7019.25 183.434 7019.25 188.549C7019.25 193.665 7015.1 197.812 7009.99 197.812C7007.54 197.812 7005.32 196.865 7003.67 195.317Z" fill="url(#paint76_linear_2605_3623)"/>
<path fill-rule="evenodd" clip-rule="evenodd" d="M7017.06 193.5C7017.06 199.299 7012.8 204 7007.56 204C7005.05 204 7002.76 202.924 7001.07 201.167C6999.46 204.3 6996.41 206.415 6992.92 206.415C6989.98 206.415 6987.35 204.915 6985.64 202.569C6984.35 203.369 6982.82 203.835 6981.17 203.835C6976.67 203.835 6973.02 200.368 6973.02 196.091C6973.02 191.814 6976.67 188.348 6981.17 188.348C6982.82 188.348 6984.35 188.813 6985.64 189.613C6987.35 187.267 6989.98 185.766 6992.92 185.766C6995.35 185.766 6997.56 186.787 6999.22 188.46C7000.83 185.206 7003.96 183 7007.56 183C7012.8 183 7017.06 187.701 7017.06 193.5Z" fill="url(#paint77_linear_2605_3623)"/>
</g>
<path d="M4664.19 389.192C4682.92 389.192 4845.88 338.538 4950.98 430.604L4545.05 430.604L4664.19 389.192Z" fill="#BBE6CE"/>
<circle cx="4865.09" cy="286.674" r="28.6739" fill="url(#paint78_linear_2605_3623)"/>
<rect x="4836.41" y="286.674" width="57.3478" height="143.37" fill="#EE8283"/>
<rect x="4893.76" y="430.043" width="32.3738" height="143.37" transform="rotate(-180 4893.76 430.043)" fill="url(#paint79_linear_2605_3623)"/>
<path d="M4893.76 297.773H4898.39C4899.92 297.773 4901.16 299.016 4901.16 300.548V430.043" stroke="white" stroke-width="1.38745"/>
<line x1="4836.41" y1="305.404" x2="4893.76" y2="305.404" stroke="white" stroke-width="1.38745"/>
<line x1="4836.41" y1="326.677" x2="4893.76" y2="326.677" stroke="white" stroke-width="1.38745"/>
<line x1="4836.41" y1="347.953" x2="4893.76" y2="347.953" stroke="white" stroke-width="1.38745"/>
<line x1="4836.41" y1="369.226" x2="4893.76" y2="369.226" stroke="white" stroke-width="1.38745"/>
<line x1="4836.41" y1="390.5" x2="4893.76" y2="390.5" stroke="white" stroke-width="1.38745"/>
<line x1="4836.41" y1="411.775" x2="4893.76" y2="411.775" stroke="white" stroke-width="1.38745"/>
<path d="M4841.04 430.044V357.896H4845.2L4853.53 430.044H4841.04Z" fill="url(#paint80_linear_2605_3623)"/>
<path d="M4836.41 286.674H4893.76V293.149H4836.41V286.674Z" fill="#626262"/>
<path d="M4661.13 356.51L4663.85 337.914C4663.89 337.679 4664.01 337.467 4664.2 337.32L4704.77 305.51" stroke="#626262" stroke-width="7.39972" stroke-linecap="round"/>
<path d="M4661.23 353.948L4663.89 338.085C4663.97 337.631 4664.21 337.221 4664.58 336.937L4703.22 306.561L4777.15 305.082L4777.92 430.103H4661.23V353.948Z" fill="#EE8283"/>
<rect x="4684.72" y="382.871" width="40.6984" height="47.1732" fill="#626262"/>
<rect x="4696.66" y="343.979" width="14.5858" height="17.364" fill="#626262"/>
<path d="M4757.78 344.676L4843.91 353.219V430.107H4757.78V344.676Z" fill="#CC7374"/>
<path d="M4843.81 356.973L4758.25 352.811V364.835L4843.81 371.31V356.973Z" fill="url(#paint81_linear_2605_3623)"/>
<rect x="4781.39" y="387.736" width="13.1967" height="18.7531" fill="#626262"/>
<rect x="4809.87" y="387.736" width="13.1967" height="18.7531" fill="#626262"/>
<rect x="4823.07" y="375.234" width="20.8368" height="4.86192" fill="#B35C5D"/>
<rect x="4790.42" y="417.602" width="20.8368" height="4.86192" fill="#B35C5D"/>
<rect x="4757.78" y="367.596" width="20.1423" height="4.86192" fill="#B35C5D"/>
<rect x="4737.44" y="360.672" width="20.8368" height="4.86192" fill="#B35C5D" fill-opacity="0.24"/>
<rect x="4673.04" y="419.688" width="11.8075" height="4.86192" fill="#B35C5D" fill-opacity="0.24"/>
<rect x="4692.12" y="373.621" width="11.8075" height="4.86192" fill="#B35C5D" fill-opacity="0.24"/>
<path d="M4749.79 338.455L4840.82 338.456L4847.27 359.079C4847.4 359.519 4847.14 359.855 4846.67 359.855H4759.56C4759.04 359.855 4758.47 359.472 4758.28 359L4749.79 338.455Z" fill="#545050"/>
<path d="M4702.9 303.394C4702.9 302.233 4703.93 301.485 4705.5 301.5L4800.65 302.395C4801.03 302.399 4801.46 302.575 4801.76 302.848L4841.17 338.667L4749.93 338.667L4702.91 306.362L4702.9 303.394Z" fill="url(#paint82_linear_2605_3623)"/>
<path d="M4630.15 444.381C4633.08 441.914 4641.25 436.889 4650.5 436.519C4648.65 440.373 4641.99 447.341 4630.15 444.381Z" fill="url(#paint83_linear_2605_3623)"/>
<path d="M4901.17 436.982C4904.1 434.516 4912.27 429.49 4921.52 429.12C4919.67 432.974 4913.01 439.942 4901.17 436.982Z" fill="url(#paint84_linear_2605_3623)"/>
<path d="M4631.99 385.646V453.208C4614.45 434.134 4614.48 404.749 4631.99 385.646Z" fill="#95E0B6"/>
<path d="M4631.98 385.646V453.208C4648.58 433.775 4648.55 405.106 4631.98 385.646Z" fill="#95E0B6"/>
<rect x="4617.25" y="444.876" width="29.6614" height="13.842" fill="white"/>
<path d="M4590.38 430.506C4593.3 428.039 4601.47 423.014 4610.72 422.644C4608.87 426.498 4602.21 433.466 4590.38 430.506Z" fill="url(#paint85_linear_2605_3623)"/>
<path d="M4593.61 405.276L4590.24 373.621C4573.86 391.492 4573.83 418.982 4590.24 436.826L4593.61 405.276Z" fill="#95E0B6"/>
<path d="M4590.38 373.621V436.519C4605.83 418.43 4605.8 391.735 4590.38 373.621Z" fill="#95E0B6"/>
<path d="M4589.91 372.695C4589.91 372.695 4599.63 399.519 4587.6 430.968H4595.46C4608.78 403.959 4597.31 380.866 4589.91 372.695Z" fill="url(#paint86_linear_2605_3623)"/>
<rect x="4575.58" y="430.968" width="27.7489" height="12.0245" fill="white"/>
<path d="M4900.65 378.244V445.884C4883.09 426.788 4883.12 397.369 4900.65 378.244Z" fill="#95E0B6"/>
<path d="M4900.65 378.244V445.884C4917.26 426.429 4917.23 397.726 4900.65 378.244Z" fill="#95E0B6"/>
<rect x="4889.4" y="437.637" width="29.7317" height="11.1494" fill="white"/>
<rect x="4607.06" y="451.636" width="305.607" height="3.4728" fill="#878787"/>
<rect x="4607.06" y="458.582" width="305.607" height="3.4728" fill="#878787"/>
<rect x="4607.06" y="465.528" width="305.607" height="3.4728" fill="url(#paint87_linear_2605_3623)" fill-opacity="0.25"/>
<rect x="4912.67" y="448.163" width="20.8368" height="3.4728" transform="rotate(90 4912.67 448.163)" fill="#878787"/>
<rect x="4893.92" y="448.163" width="20.8368" height="3.4728" transform="rotate(90 4893.92 448.163)" fill="#878787"/>
<rect x="4784.87" y="448.163" width="20.8368" height="3.4728" transform="rotate(90 4784.87 448.163)" fill="#878787"/>
<rect x="4743.2" y="448.163" width="20.8368" height="3.4728" transform="rotate(90 4743.2 448.163)" fill="#878787"/>
<rect x="4653.6" y="448.163" width="20.8368" height="3.4728" transform="rotate(90 4653.6 448.163)" fill="#878787"/>
<rect x="4610.54" y="448.163" width="20.8368" height="3.4728" transform="rotate(90 4610.54 448.163)" fill="#878787"/>
<path d="M4632.92 386.57C4632.92 386.57 4642.63 413.394 4630.61 444.843H4638.47C4651.79 417.834 4640.32 394.741 4632.92 386.57Z" fill="url(#paint88_linear_2605_3623)"/>
<path d="M4900.7 380.096C4900.7 380.096 4910.41 406.92 4898.39 438.368H4906.25C4919.57 411.36 4908.1 388.266 4900.7 380.096Z" fill="url(#paint89_linear_2605_3623)"/>
</g>
<defs>
<linearGradient id="paint0_linear_2605_3623" x1="4064.5" y1="130.748" x2="4028.96" y2="2565.97" gradientUnits="userSpaceOnUse">
<stop stop-color="#CCE5FF"/>
<stop offset="1" stop-color="#CCE5FF" stop-opacity="0"/>
</linearGradient>
<linearGradient id="paint1_linear_2605_3623" x1="2260.05" y1="451" x2="2147.01" y2="-40.9363" gradientUnits="userSpaceOnUse">
<stop offset="0.0525827" stop-color="#BEDEFF"/>
<stop offset="1" stop-color="#BEDEFF" stop-opacity="0"/>
</linearGradient>
<linearGradient id="paint2_linear_2605_3623" x1="1385.13" y1="499.771" x2="1330.97" y2="320.182" gradientUnits="userSpaceOnUse">
<stop offset="0.0525827" stop-color="#BEDEFF"/>
<stop offset="1" stop-color="#BEDEFF" stop-opacity="0"/>
</linearGradient>
<linearGradient id="paint3_linear_2605_3623" x1="3708.9" y1="173.637" x2="3582.18" y2="345.224" gradientUnits="userSpaceOnUse">
<stop stop-color="#C0DEFE"/>
<stop offset="1" stop-color="#A2CAF3"/>
<stop offset="1" stop-color="#DCEDFF"/>
</linearGradient>
<linearGradient id="paint4_linear_2605_3623" x1="3669.88" y1="157.422" x2="3556.44" y2="313.152" gradientUnits="userSpaceOnUse">
<stop stop-color="#C0DEFE"/>
<stop offset="1" stop-color="#A2CAF3"/>
<stop offset="1" stop-color="#DCEDFF"/>
</linearGradient>
<linearGradient id="paint5_linear_2605_3623" x1="3451.05" y1="168.638" x2="3038.25" y2="463.518" gradientUnits="userSpaceOnUse">
<stop stop-color="#A2CAF3"/>
<stop offset="0.994792" stop-color="#88BBF0"/>
</linearGradient>
<linearGradient id="paint6_linear_2605_3623" x1="3675.62" y1="258.001" x2="3328.15" y2="511.82" gradientUnits="userSpaceOnUse">
<stop stop-color="#A2CAF3"/>
<stop offset="1" stop-color="#88BBF0"/>
</linearGradient>
<linearGradient id="paint7_linear_2605_3623" x1="5677.05" y1="472.728" x2="5564" y2="-19.2078" gradientUnits="userSpaceOnUse">
<stop offset="0.0525827" stop-color="#BEDEFF"/>
<stop offset="1" stop-color="#BEDEFF" stop-opacity="0"/>
</linearGradient>
<linearGradient id="paint8_linear_2605_3623" x1="7796.08" y1="527.021" x2="7677.39" y2="89.641" gradientUnits="userSpaceOnUse">
<stop offset="0.0525827" stop-color="#BEDEFF"/>
<stop offset="1" stop-color="#BEDEFF" stop-opacity="0"/>
</linearGradient>
<linearGradient id="paint9_linear_2605_3623" x1="7701.94" y1="287.5" x2="7575.22" y2="459.087" gradientUnits="userSpaceOnUse">
<stop stop-color="#C0DEFE"/>
<stop offset="1" stop-color="#A2CAF3"/>
<stop offset="1" stop-color="#DCEDFF"/>
</linearGradient>
<linearGradient id="paint10_linear_2605_3623" x1="7763.88" y1="271.286" x2="7645.19" y2="401.31" gradientUnits="userSpaceOnUse">
<stop stop-color="#C0DEFE"/>
<stop offset="1" stop-color="#A2CAF3"/>
<stop offset="1" stop-color="#DCEDFF"/>
</linearGradient>
<linearGradient id="paint11_linear_2605_3623" x1="7444.09" y1="282.501" x2="7031.28" y2="577.382" gradientUnits="userSpaceOnUse">
<stop stop-color="#A2CAF3"/>
<stop offset="0.994792" stop-color="#88BBF0"/>
</linearGradient>
<linearGradient id="paint12_linear_2605_3623" x1="7668.65" y1="371.864" x2="7321.18" y2="625.684" gradientUnits="userSpaceOnUse">
<stop stop-color="#A2CAF3"/>
<stop offset="1" stop-color="#88BBF0"/>
</linearGradient>
<linearGradient id="paint13_linear_2605_3623" x1="884.589" y1="469.634" x2="764.826" y2="-32.6605" gradientUnits="userSpaceOnUse">
<stop offset="0.0525827" stop-color="#BEDEFF"/>
<stop offset="1" stop-color="#BEDEFF" stop-opacity="0"/>
</linearGradient>
<linearGradient id="paint14_linear_2605_3623" x1="5086.33" y1="233.265" x2="4984.27" y2="24.3447" gradientUnits="userSpaceOnUse">
<stop stop-color="#B1D7FF"/>
<stop offset="1" stop-color="#CCE5FF"/>
</linearGradient>
<linearGradient id="paint15_linear_2605_3623" x1="4782.14" y1="233.267" x2="4654.36" y2="83.5554" gradientUnits="userSpaceOnUse">
<stop stop-color="#B1D7FF"/>
<stop offset="1" stop-color="#CCE5FF"/>
</linearGradient>
<linearGradient id="paint16_linear_2605_3623" x1="4461.7" y1="279.863" x2="5159.15" y2="538.737" gradientUnits="userSpaceOnUse">
<stop stop-color="#B4D8FF" stop-opacity="0"/>
<stop offset="1" stop-color="#7DB2E9"/>
</linearGradient>
<linearGradient id="paint17_linear_2605_3623" x1="3313.05" y1="271" x2="3315.05" y2="275.5" gradientUnits="userSpaceOnUse">
<stop stop-color="#A6DEC6"/>
<stop offset="1" stop-color="#81BFA5"/>
</linearGradient>
<linearGradient id="paint18_linear_2605_3623" x1="3326.3" y1="273.5" x2="3326.3" y2="293" gradientUnits="userSpaceOnUse">
<stop stop-color="#61A086"/>
<stop offset="1" stop-color="#70B196" stop-opacity="0"/>
</linearGradient>
<linearGradient id="paint19_linear_2605_3623" x1="3347.16" y1="276" x2="3349.8" y2="280.247" gradientUnits="userSpaceOnUse">
<stop stop-color="#96D5BA"/>
<stop offset="1" stop-color="#81BFA5"/>
</linearGradient>
<linearGradient id="paint20_linear_2605_3623" x1="3354.05" y1="281.209" x2="3352.96" y2="296.189" gradientUnits="userSpaceOnUse">
<stop stop-color="#70B196"/>
<stop offset="1" stop-color="#70B196" stop-opacity="0"/>
</linearGradient>
<linearGradient id="paint21_linear_2605_3623" x1="3332.55" y1="420" x2="3365.55" y2="328" gradientUnits="userSpaceOnUse">
<stop stop-color="#8BD9AD"/>
<stop offset="1" stop-color="#A7D1BA" stop-opacity="0.37"/>
</linearGradient>
<linearGradient id="paint22_linear_2605_3623" x1="3484.81" y1="409.455" x2="3510.61" y2="303.194" gradientUnits="userSpaceOnUse">
<stop stop-color="#8BD9AD"/>
<stop offset="1" stop-color="#A7D1BA" stop-opacity="0.37"/>
</linearGradient>
<linearGradient id="paint23_linear_2605_3623" x1="2548.11" y1="290.234" x2="2505.33" y2="186.437" gradientUnits="userSpaceOnUse">
<stop stop-color="#B1D7FF"/>
<stop offset="1" stop-color="#CCE5FF"/>
</linearGradient>
<linearGradient id="paint24_linear_2605_3623" x1="2433.1" y1="268.483" x2="2388.35" y2="199.334" gradientUnits="userSpaceOnUse">
<stop stop-color="#B1D7FF"/>
<stop offset="1" stop-color="#CCE5FF"/>
</linearGradient>
<linearGradient id="paint25_linear_2605_3623" x1="2444.9" y1="288.767" x2="2717.26" y2="389.862" gradientUnits="userSpaceOnUse">
<stop stop-color="#B4D8FF" stop-opacity="0"/>
<stop offset="1" stop-color="#7DB2E9"/>
</linearGradient>
<linearGradient id="paint26_linear_2605_3623" x1="6861.15" y1="454.305" x2="6892.7" y2="361.155" gradientUnits="userSpaceOnUse">
<stop stop-color="#8BD9AD"/>
<stop offset="1" stop-color="#A7D1BA" stop-opacity="0.37"/>
</linearGradient>
<linearGradient id="paint27_linear_2605_3623" x1="7022.39" y1="443.759" x2="7046.9" y2="336.854" gradientUnits="userSpaceOnUse">
<stop stop-color="#8BD9AD"/>
<stop offset="1" stop-color="#A7D1BA" stop-opacity="0.37"/>
</linearGradient>
<linearGradient id="paint28_linear_2605_3623" x1="475.053" y1="309.02" x2="477.053" y2="313.52" gradientUnits="userSpaceOnUse">
<stop stop-color="#A6DEC6"/>
<stop offset="1" stop-color="#81BFA5"/>
</linearGradient>
<linearGradient id="paint29_linear_2605_3623" x1="488.303" y1="311.52" x2="488.303" y2="331.02" gradientUnits="userSpaceOnUse">
<stop stop-color="#61A086"/>
<stop offset="1" stop-color="#70B196" stop-opacity="0"/>
</linearGradient>
<linearGradient id="paint30_linear_2605_3623" x1="509.162" y1="314.02" x2="511.796" y2="318.267" gradientUnits="userSpaceOnUse">
<stop stop-color="#96D5BA"/>
<stop offset="1" stop-color="#81BFA5"/>
</linearGradient>
<linearGradient id="paint31_linear_2605_3623" x1="516.052" y1="319.228" x2="514.96" y2="334.209" gradientUnits="userSpaceOnUse">
<stop stop-color="#70B196"/>
<stop offset="1" stop-color="#70B196" stop-opacity="0"/>
</linearGradient>
<linearGradient id="paint32_linear_2605_3623" x1="361.447" y1="303.238" x2="363.987" y2="307.457" gradientUnits="userSpaceOnUse">
<stop stop-color="#A6DEC6"/>
<stop offset="1" stop-color="#81BFA5"/>
</linearGradient>
<linearGradient id="paint33_linear_2605_3623" x1="374.904" y1="304.085" x2="377.311" y2="323.436" gradientUnits="userSpaceOnUse">
<stop stop-color="#61A086"/>
<stop offset="1" stop-color="#70B196" stop-opacity="0"/>
</linearGradient>
<linearGradient id="paint34_linear_2605_3623" x1="395.913" y1="303.99" x2="399.051" y2="307.88" gradientUnits="userSpaceOnUse">
<stop stop-color="#96D5BA"/>
<stop offset="1" stop-color="#81BFA5"/>
</linearGradient>
<linearGradient id="paint35_linear_2605_3623" x1="403.394" y1="308.309" x2="404.159" y2="323.31" gradientUnits="userSpaceOnUse">
<stop stop-color="#70B196"/>
<stop offset="1" stop-color="#70B196" stop-opacity="0"/>
</linearGradient>
<linearGradient id="paint36_linear_2605_3623" x1="310.555" y1="461.006" x2="343.555" y2="369.006" gradientUnits="userSpaceOnUse">
<stop stop-color="#8BD9AD"/>
<stop offset="1" stop-color="#A7D1BA" stop-opacity="0.37"/>
</linearGradient>
<linearGradient id="paint37_linear_2605_3623" x1="462.811" y1="450.461" x2="488.61" y2="344.199" gradientUnits="userSpaceOnUse">
<stop stop-color="#8BD9AD"/>
<stop offset="1" stop-color="#A7D1BA" stop-opacity="0.37"/>
</linearGradient>
<linearGradient id="paint38_linear_2605_3623" x1="6228.88" y1="308.516" x2="6190.95" y2="224.579" gradientUnits="userSpaceOnUse">
<stop stop-color="#B1D7FF"/>
<stop offset="1" stop-color="#CCE5FF"/>
</linearGradient>
<linearGradient id="paint39_linear_2605_3623" x1="6078.56" y1="308.538" x2="6028.28" y2="252.955" gradientUnits="userSpaceOnUse">
<stop stop-color="#B1D7FF"/>
<stop offset="1" stop-color="#CCE5FF"/>
</linearGradient>
<linearGradient id="paint40_linear_2605_3623" x1="5925.9" y1="326.769" x2="6198.26" y2="427.864" gradientUnits="userSpaceOnUse">
<stop stop-color="#B4D8FF" stop-opacity="0"/>
<stop offset="1" stop-color="#7DB2E9"/>
</linearGradient>
<linearGradient id="paint41_linear_2605_3623" x1="1147.66" y1="322.059" x2="1194.64" y2="208.718" gradientUnits="userSpaceOnUse">
<stop stop-color="#B1D7FF"/>
<stop offset="1" stop-color="#CCE5FF"/>
</linearGradient>
<linearGradient id="paint42_linear_2605_3623" x1="1287.58" y1="322.536" x2="1352.79" y2="247.878" gradientUnits="userSpaceOnUse">
<stop stop-color="#B1D7FF"/>
<stop offset="1" stop-color="#CCE5FF"/>
</linearGradient>
<linearGradient id="paint43_linear_2605_3623" x1="832.913" y1="247.46" x2="1058.6" y2="430.403" gradientUnits="userSpaceOnUse">
<stop stop-color="#B4D8FF" stop-opacity="0"/>
<stop offset="1" stop-color="#7DB2E9"/>
</linearGradient>
<linearGradient id="paint44_linear_2605_3623" x1="4238.55" y1="859.93" x2="4246.05" y2="1149.93" gradientUnits="userSpaceOnUse">
<stop stop-color="white"/>
<stop offset="1" stop-color="white"/>
</linearGradient>
<linearGradient id="paint45_linear_2605_3623" x1="4587.5" y1="738.5" x2="4610.54" y2="401.818" gradientUnits="userSpaceOnUse">
<stop offset="0.243303" stop-color="#D1E8FF"/>
<stop offset="1" stop-color="white"/>
</linearGradient>
<linearGradient id="paint46_linear_2605_3623" x1="4852.08" y1="51.7734" x2="4852.08" y2="141.847" gradientUnits="userSpaceOnUse">
<stop stop-color="white"/>
<stop offset="1" stop-color="white" stop-opacity="0"/>
<stop offset="1" stop-color="white" stop-opacity="0"/>
</linearGradient>
<linearGradient id="paint47_linear_2605_3623" x1="4865.35" y1="98.6033" x2="4861.39" y2="49.827" gradientUnits="userSpaceOnUse">
<stop stop-color="#EBF5FF" stop-opacity="0.386364"/>
<stop offset="0.770833" stop-color="#CCE5FF"/>
</linearGradient>
<linearGradient id="paint48_linear_2605_3623" x1="7597.47" y1="45.5645" x2="7597.47" y2="161.373" gradientUnits="userSpaceOnUse">
<stop stop-color="white"/>
<stop offset="1" stop-color="white" stop-opacity="0"/>
<stop offset="1" stop-color="white" stop-opacity="0"/>
</linearGradient>
<linearGradient id="paint49_linear_2605_3623" x1="7614.54" y1="105.777" x2="7609.45" y2="43.0647" gradientUnits="userSpaceOnUse">
<stop stop-color="#EBF5FF" stop-opacity="0.386364"/>
<stop offset="0.770833" stop-color="#CCE5FF"/>
</linearGradient>
<linearGradient id="paint50_linear_2605_3623" x1="3873.68" y1="256.228" x2="3873.68" y2="313.174" gradientUnits="userSpaceOnUse">
<stop stop-color="white"/>
<stop offset="1" stop-color="white" stop-opacity="0"/>
<stop offset="1" stop-color="white" stop-opacity="0"/>
</linearGradient>
<linearGradient id="paint51_linear_2605_3623" x1="3878.02" y1="295.401" x2="3873.23" y2="253.815" gradientUnits="userSpaceOnUse">
<stop stop-color="#EBF5FF" stop-opacity="0.386364"/>
<stop offset="0.770833" stop-color="#CCE5FF"/>
</linearGradient>
<linearGradient id="paint52_linear_2605_3623" x1="4545.86" y1="39.1213" x2="4545.86" y2="52.6793" gradientUnits="userSpaceOnUse">
<stop stop-color="white"/>
<stop offset="1" stop-color="white" stop-opacity="0"/>
<stop offset="1" stop-color="white" stop-opacity="0"/>
</linearGradient>
<linearGradient id="paint53_linear_2605_3623" x1="4545.87" y1="53.3634" x2="4543.86" y2="37.8567" gradientUnits="userSpaceOnUse">
<stop stop-color="#EBF5FF" stop-opacity="0.386364"/>
<stop offset="0.770833" stop-color="#CCE5FF"/>
</linearGradient>
<linearGradient id="paint54_linear_2605_3623" x1="6883.86" y1="229.121" x2="6883.86" y2="242.679" gradientUnits="userSpaceOnUse">
<stop stop-color="white"/>
<stop offset="1" stop-color="white" stop-opacity="0"/>
<stop offset="1" stop-color="white" stop-opacity="0"/>
</linearGradient>
<linearGradient id="paint55_linear_2605_3623" x1="6883.87" y1="243.363" x2="6881.86" y2="227.857" gradientUnits="userSpaceOnUse">
<stop stop-color="#EBF5FF" stop-opacity="0.386364"/>
<stop offset="0.770833" stop-color="#CCE5FF"/>
</linearGradient>
<linearGradient id="paint56_linear_2605_3623" x1="900.86" y1="109.121" x2="900.86" y2="122.679" gradientUnits="userSpaceOnUse">
<stop stop-color="white"/>
<stop offset="1" stop-color="white" stop-opacity="0"/>
<stop offset="1" stop-color="white" stop-opacity="0"/>
</linearGradient>
<linearGradient id="paint57_linear_2605_3623" x1="900.864" y1="123.363" x2="898.856" y2="107.857" gradientUnits="userSpaceOnUse">
<stop stop-color="#EBF5FF" stop-opacity="0.386364"/>
<stop offset="0.770833" stop-color="#CCE5FF"/>
</linearGradient>
<linearGradient id="paint58_linear_2605_3623" x1="139.86" y1="121.121" x2="139.86" y2="134.679" gradientUnits="userSpaceOnUse">
<stop stop-color="white"/>
<stop offset="1" stop-color="white" stop-opacity="0"/>
<stop offset="1" stop-color="white" stop-opacity="0"/>
</linearGradient>
<linearGradient id="paint59_linear_2605_3623" x1="139.864" y1="135.363" x2="137.856" y2="119.857" gradientUnits="userSpaceOnUse">
<stop stop-color="#EBF5FF" stop-opacity="0.386364"/>
<stop offset="0.770833" stop-color="#CCE5FF"/>
</linearGradient>
<linearGradient id="paint60_linear_2605_3623" x1="5452.86" y1="98.1213" x2="5452.86" y2="111.679" gradientUnits="userSpaceOnUse">
<stop stop-color="white"/>
<stop offset="1" stop-color="white" stop-opacity="0"/>
<stop offset="1" stop-color="white" stop-opacity="0"/>
</linearGradient>
<linearGradient id="paint61_linear_2605_3623" x1="5452.87" y1="112.363" x2="5450.86" y2="96.8567" gradientUnits="userSpaceOnUse">
<stop stop-color="#EBF5FF" stop-opacity="0.386364"/>
<stop offset="0.770833" stop-color="#CCE5FF"/>
</linearGradient>
<linearGradient id="paint62_linear_2605_3623" x1="2401.86" y1="29.1213" x2="2401.86" y2="42.6793" gradientUnits="userSpaceOnUse">
<stop stop-color="white"/>
<stop offset="1" stop-color="white" stop-opacity="0"/>
<stop offset="1" stop-color="white" stop-opacity="0"/>
</linearGradient>
<linearGradient id="paint63_linear_2605_3623" x1="2401.87" y1="43.3634" x2="2399.86" y2="27.8567" gradientUnits="userSpaceOnUse">
<stop stop-color="#EBF5FF" stop-opacity="0.386364"/>
<stop offset="0.770833" stop-color="#CCE5FF"/>
</linearGradient>
<linearGradient id="paint64_linear_2605_3623" x1="1761.86" y1="253.121" x2="1761.86" y2="266.679" gradientUnits="userSpaceOnUse">
<stop stop-color="white"/>
<stop offset="1" stop-color="white" stop-opacity="0"/>
<stop offset="1" stop-color="white" stop-opacity="0"/>
</linearGradient>
<linearGradient id="paint65_linear_2605_3623" x1="1761.87" y1="267.363" x2="1759.86" y2="251.857" gradientUnits="userSpaceOnUse">
<stop stop-color="#EBF5FF" stop-opacity="0.386364"/>
<stop offset="0.770833" stop-color="#CCE5FF"/>
</linearGradient>
<linearGradient id="paint66_linear_2605_3623" x1="3865.68" y1="23.5869" x2="3865.68" y2="57.0935" gradientUnits="userSpaceOnUse">
<stop stop-color="white"/>
<stop offset="1" stop-color="white" stop-opacity="0"/>
<stop offset="1" stop-color="white" stop-opacity="0"/>
</linearGradient>
<linearGradient id="paint67_linear_2605_3623" x1="3865.7" y1="58.7824" x2="3860.74" y2="20.4594" gradientUnits="userSpaceOnUse">
<stop stop-color="#EBF5FF" stop-opacity="0.386364"/>
<stop offset="0.770833" stop-color="#CCE5FF"/>
</linearGradient>
<linearGradient id="paint68_linear_2605_3623" x1="2868.85" y1="68.608" x2="2868.85" y2="154.236" gradientUnits="userSpaceOnUse">
<stop stop-color="white"/>
<stop offset="1" stop-color="white" stop-opacity="0"/>
<stop offset="1" stop-color="white" stop-opacity="0"/>
</linearGradient>
<linearGradient id="paint69_linear_2605_3623" x1="2868.9" y1="158.553" x2="2856.21" y2="60.6156" gradientUnits="userSpaceOnUse">
<stop stop-color="#EBF5FF" stop-opacity="0.386364"/>
<stop offset="0.770833" stop-color="#CCE5FF"/>
</linearGradient>
<linearGradient id="paint70_linear_2605_3623" x1="1461.85" y1="118.608" x2="1461.85" y2="204.236" gradientUnits="userSpaceOnUse">
<stop stop-color="white"/>
<stop offset="1" stop-color="white" stop-opacity="0"/>
<stop offset="1" stop-color="white" stop-opacity="0"/>
</linearGradient>
<linearGradient id="paint71_linear_2605_3623" x1="1461.9" y1="208.553" x2="1449.21" y2="110.616" gradientUnits="userSpaceOnUse">
<stop stop-color="#EBF5FF" stop-opacity="0.386364"/>
<stop offset="0.770833" stop-color="#CCE5FF"/>
</linearGradient>
<linearGradient id="paint72_linear_2605_3623" x1="772.547" y1="239.413" x2="772.547" y2="286.882" gradientUnits="userSpaceOnUse">
<stop stop-color="white"/>
<stop offset="1" stop-color="white" stop-opacity="0"/>
<stop offset="1" stop-color="white" stop-opacity="0"/>
</linearGradient>
<linearGradient id="paint73_linear_2605_3623" x1="772.572" y1="289.275" x2="765.541" y2="234.984" gradientUnits="userSpaceOnUse">
<stop stop-color="#EBF5FF" stop-opacity="0.386364"/>
<stop offset="0.770833" stop-color="#CCE5FF"/>
</linearGradient>
<linearGradient id="paint74_linear_2605_3623" x1="6260.91" y1="117.608" x2="6260.91" y2="203.236" gradientUnits="userSpaceOnUse">
<stop stop-color="white"/>
<stop offset="1" stop-color="white" stop-opacity="0"/>
<stop offset="1" stop-color="white" stop-opacity="0"/>
</linearGradient>
<linearGradient id="paint75_linear_2605_3623" x1="6260.95" y1="207.553" x2="6248.27" y2="109.616" gradientUnits="userSpaceOnUse">
<stop stop-color="#EBF5FF" stop-opacity="0.386364"/>
<stop offset="0.770833" stop-color="#CCE5FF"/>
</linearGradient>
<linearGradient id="paint76_linear_2605_3623" x1="6998.52" y1="176.403" x2="6998.52" y2="197.81" gradientUnits="userSpaceOnUse">
<stop stop-color="white"/>
<stop offset="1" stop-color="white" stop-opacity="0"/>
<stop offset="1" stop-color="white" stop-opacity="0"/>
</linearGradient>
<linearGradient id="paint77_linear_2605_3623" x1="6998.53" y1="198.888" x2="6995.36" y2="174.404" gradientUnits="userSpaceOnUse">
<stop stop-color="#EBF5FF" stop-opacity="0.386364"/>
<stop offset="0.770833" stop-color="#CCE5FF"/>
</linearGradient>
<linearGradient id="paint78_linear_2605_3623" x1="4865.09" y1="258" x2="4863.65" y2="291.124" gradientUnits="userSpaceOnUse">
<stop stop-color="#C4C4C4"/>
<stop offset="1" stop-color="#989797"/>
</linearGradient>
<linearGradient id="paint79_linear_2605_3623" x1="4893.76" y1="508.202" x2="4934.35" y2="510.855" gradientUnits="userSpaceOnUse">
<stop stop-color="#C26A6B"/>
<stop offset="1" stop-color="#C26A6B" stop-opacity="0"/>
</linearGradient>
<linearGradient id="paint80_linear_2605_3623" x1="4841.04" y1="399.415" x2="4851.21" y2="400.484" gradientUnits="userSpaceOnUse">
<stop stop-color="#B86364"/>
<stop offset="1" stop-color="#C26A6B" stop-opacity="0"/>
</linearGradient>
<linearGradient id="paint81_linear_2605_3623" x1="4801.03" y1="356.973" x2="4800.8" y2="369.922" gradientUnits="userSpaceOnUse">
<stop stop-color="#933A3B"/>
<stop offset="1" stop-color="#C86E6F" stop-opacity="0"/>
</linearGradient>
<linearGradient id="paint82_linear_2605_3623" x1="4758.72" y1="297.784" x2="4758.87" y2="310.356" gradientUnits="userSpaceOnUse">
<stop stop-color="#939393"/>
<stop offset="1" stop-color="#696666"/>
</linearGradient>
<linearGradient id="paint83_linear_2605_3623" x1="4625.07" y1="450.856" x2="4644.7" y2="429.738" gradientUnits="userSpaceOnUse">
<stop stop-color="#2EBB80"/>
<stop offset="1" stop-color="#4CC693" stop-opacity="0"/>
</linearGradient>
<linearGradient id="paint84_linear_2605_3623" x1="4896.08" y1="443.457" x2="4915.72" y2="422.34" gradientUnits="userSpaceOnUse">
<stop stop-color="#2EBB80"/>
<stop offset="1" stop-color="#4CC693" stop-opacity="0"/>
</linearGradient>
<linearGradient id="paint85_linear_2605_3623" x1="4585.29" y1="436.981" x2="4604.93" y2="415.863" gradientUnits="userSpaceOnUse">
<stop stop-color="#2EBB80"/>
<stop offset="1" stop-color="#4CC693" stop-opacity="0"/>
</linearGradient>
<linearGradient id="paint86_linear_2605_3623" x1="4621.83" y1="408.306" x2="4589.91" y2="408.306" gradientUnits="userSpaceOnUse">
<stop stop-color="#0F9B63"/>
<stop offset="1" stop-color="#0F9B63" stop-opacity="0"/>
</linearGradient>
<linearGradient id="paint87_linear_2605_3623" x1="4759.65" y1="472.132" x2="4759.65" y2="462.883" gradientUnits="userSpaceOnUse">
<stop stop-color="#8F8F8F"/>
<stop offset="1" stop-color="#ABABAB" stop-opacity="0"/>
</linearGradient>
<linearGradient id="paint88_linear_2605_3623" x1="4664.83" y1="422.181" x2="4632.92" y2="422.181" gradientUnits="userSpaceOnUse">
<stop stop-color="#0F9B63"/>
<stop offset="1" stop-color="#0F9B63" stop-opacity="0"/>
</linearGradient>
<linearGradient id="paint89_linear_2605_3623" x1="4932.61" y1="415.707" x2="4900.7" y2="415.707" gradientUnits="userSpaceOnUse">
<stop stop-color="#0F9B63"/>
<stop offset="1" stop-color="#0F9B63" stop-opacity="0"/>
</linearGradient>
<clipPath id="clip0_2605_3623">
<rect width="8192" height="1024" fill="white"/>
</clipPath>
</defs>
</svg>
